<?xml version="1.0" encoding="UTF-8"?>
<svg width="368px" height="66px" viewBox="0 0 368 66" version="1.1" xmlns="http://www.w3.org/2000/svg" xmlns:xlink="http://www.w3.org/1999/xlink">
    <title>Artboard</title>
    <g id="Artboard" stroke="none" stroke-width="1" fill="none" fill-rule="evenodd">
        <path d="M20.0893127,60.3090909 C22.219591,60.3090909 24.0249117,60.1272727 25.1081041,59.8727273 L25.1081041,52.0545455 C24.4581886,52.1636364 23.4833155,52.2363636 22.5445488,52.2363636 C19.4393973,52.2363636 17.9951408,50.8181818 17.9951408,47.8363636 L17.9951408,29.1818182 L25.1442105,29.1818182 L25.1442105,21.1818182 L17.9951408,21.1818182 L17.9951408,12.2 L7.4520683,12.2 L7.4520683,21.1818182 L2,21.1818182 L2,29.1818182 L7.4520683,29.1818182 L7.4520683,49.6545455 C7.4520683,57.2545455 10.9904967,60.3090909 20.0893127,60.3090909 Z M37.2365408,15.9090909 C40.3055859,15.9090909 42.7247155,13.4363636 42.7247155,10.4545455 C42.7247155,7.43636364 40.3055859,5 37.2365408,5 C34.1674957,5 31.7483661,7.43636364 31.7483661,10.4545455 C31.7483661,13.4363636 34.1674957,15.9090909 37.2365408,15.9090909 Z M42.5441834,60.1636364 L42.5441834,21.1818182 L32.001111,21.1818182 L32.001111,60.1636364 L42.5441834,60.1636364 Z M60.9912424,60.1636364 L60.9912424,36.6363636 C60.9912424,32.2727273 63.6992233,29.2181818 67.7070351,29.2181818 C71.6065277,29.2181818 73.9534445,31.6909091 73.9534445,35.8727273 L73.9534445,60.1636364 L84.0993464,60.1636364 L84.0993464,36.4909091 C84.0993464,32.1636364 86.7351145,29.2181818 90.7429263,29.2181818 C94.822951,29.2181818 97.0615485,31.6909091 97.0615485,36.2 L97.0615485,60.1636364 L107.604621,60.1636364 L107.604621,33.5454545 C107.604621,25.6909091 102.513617,20.4545455 94.9312702,20.4545455 C89.2625634,20.4545455 84.6409426,23.5454545 82.9078348,28.4545455 L82.6911963,28.4545455 C81.3913655,23.3636364 77.4918729,20.4545455 71.895379,20.4545455 C66.6238427,20.4545455 62.4716053,23.5454545 60.8468167,28.2363636 L60.6301783,28.2363636 L60.6301783,21.1818182 L50.4481699,21.1818182 L50.4481699,60.1636364 L60.9912424,60.1636364 Z M132.839686,61 C142.407885,61 149.340316,55.8727273 150.495721,48.2363636 L140.819203,48.2363636 C139.84433,51.2181818 136.883604,53.1454545 133.020218,53.1454545 C127.640362,53.1454545 124.13804,49.3272727 124.13804,43.7636364 L124.13804,43.1090909 L150.820679,43.1090909 L150.820679,39.8727273 C150.820679,28.0181818 143.707716,20.3454545 132.442515,20.3454545 C120.996782,20.3454545 113.7755,28.4181818 113.7755,40.8545455 C113.7755,53.3272727 120.924569,61 132.839686,61 Z M140.674777,36.6 L124.246359,36.6 C124.607423,31.7272727 127.929213,28.2 132.550834,28.2 C137.244668,28.2 140.458139,31.6181818 140.674777,36.6 Z M170.495356,60.1636364 L170.495356,29.1818182 L177.933277,29.1818182 L177.933277,21.3636364 L170.242611,21.3636364 L170.242611,18.7818182 C170.242611,16.0181818 171.75908,14.4909091 175.225296,14.4909091 C176.272382,14.4909091 177.319468,14.5636364 178.077703,14.7090909 L178.077703,7.69090909 C176.850085,7.43636364 174.647593,7.21818182 172.697847,7.21818182 C163.526818,7.21818182 159.952283,10.7818182 159.952283,18.4181818 L159.952283,21.3636364 L154.680747,21.3636364 L154.680747,29.1818182 L159.952283,29.1818182 L159.952283,60.1636364 L170.495356,60.1636364 Z M194.899973,60.1636364 L194.899973,38.3818182 C194.899973,32.8909091 197.932912,29.6909091 203.132235,29.6909091 C204.648704,29.6909091 206.092961,29.9454545 206.959515,30.3090909 L206.959515,20.9636364 C206.237387,20.7454545 205.190301,20.5636364 203.962683,20.5636364 C199.413275,20.5636364 196.127591,23.2545455 194.755547,28.2 L194.538909,28.2 L194.538909,21.1818182 L184.356901,21.1818182 L184.356901,60.1636364 L194.899973,60.1636364 Z M222.734699,60.7818182 C227.572958,60.7818182 232.375111,58.3454545 234.541496,54.2 L234.758135,54.2 L234.758135,60.1636364 L244.940143,60.1636364 L244.940143,33.3636364 C244.940143,25.5090909 238.477095,20.3454545 228.547832,20.3454545 C218.29361,20.3454545 211.902775,25.5454545 211.505605,33.1090909 L221.146017,33.1090909 C221.651507,30.2363636 224.142849,28.2727273 228.078448,28.2727273 C232.050154,28.2727273 234.577603,30.3818182 234.577603,34.0181818 L234.577603,36.6 L224.828871,37.1818182 C215.188459,37.7636364 209.772497,41.8727273 209.772497,48.9636364 C209.772497,55.9818182 215.368991,60.7818182 222.734699,60.7818182 Z M226.200915,53.1090909 C222.62638,53.1090909 220.243357,51.2909091 220.243357,48.3818182 C220.243357,45.6181818 222.481954,43.8363636 226.417553,43.5454545 L234.577603,43.0363636 L234.577603,45.8727273 C234.577603,50.0909091 230.786429,53.1090909 226.200915,53.1090909 Z M263.170563,60.1636364 L263.170563,36.6363636 C263.170563,32.2727273 265.878544,29.2181818 269.886356,29.2181818 C273.785849,29.2181818 276.132766,31.6909091 276.132766,35.8727273 L276.132766,60.1636364 L286.278667,60.1636364 L286.278667,36.4909091 C286.278667,32.1636364 288.914436,29.2181818 292.922247,29.2181818 C297.002272,29.2181818 299.24087,31.6909091 299.24087,36.2 L299.24087,60.1636364 L309.783942,60.1636364 L309.783942,33.5454545 C309.783942,25.6909091 304.692938,20.4545455 297.110591,20.4545455 C291.441884,20.4545455 286.820264,23.5454545 285.087156,28.4545455 L284.870517,28.4545455 C283.570686,23.3636364 279.671194,20.4545455 274.0747,20.4545455 C268.803164,20.4545455 264.650926,23.5454545 263.026138,28.2363636 L262.809499,28.2363636 L262.809499,21.1818182 L252.627491,21.1818182 L252.627491,60.1636364 L263.170563,60.1636364 Z M335.019007,61 C344.587206,61 351.519637,55.8727273 352.675042,48.2363636 L342.998524,48.2363636 C342.023651,51.2181818 339.062925,53.1454545 335.199539,53.1454545 C329.819683,53.1454545 326.317361,49.3272727 326.317361,43.7636364 L326.317361,43.1090909 L353,43.1090909 L353,39.8727273 C353,28.0181818 345.887037,20.3454545 334.621836,20.3454545 C323.176103,20.3454545 315.954821,28.4181818 315.954821,40.8545455 C315.954821,53.3272727 323.10389,61 335.019007,61 Z M342.854098,36.6 L326.42568,36.6 C326.786744,31.7272727 330.108534,28.2 334.730155,28.2 C339.423989,28.2 342.63746,31.6181818 342.854098,36.6 Z" id="timeframe" fill="#FFFFFF" fill-rule="nonzero"></path>
        <path d="M358.004439,18 C361.901712,18 365,14.9125475 365,11 C365,7.06970849 361.901712,4 358.004439,4 C354.116043,4 351,7.06970849 351,11 C351,14.9125475 354.116043,18 358.004439,18 Z M358.004439,16.5449937 C354.923906,16.5449937 352.455929,14.1140684 352.455929,11 C352.455929,7.86818758 354.923906,5.44613435 358.004439,5.44613435 C361.093849,5.44613435 363.544071,7.86818758 363.544071,11 C363.544071,14.1140684 361.093849,16.5449937 358.004439,16.5449937 Z M358.146481,14.531052 C359.939759,14.531052 361.093849,13.5373891 361.262524,12.0291508 L359.593532,12.0291508 C359.45149,12.721166 358.918833,13.1115336 358.155358,13.1115336 C357.161065,13.1115336 356.539632,12.3307985 356.539632,10.982256 C356.539632,9.66032953 357.161065,8.87959442 358.155358,8.87959442 C358.945466,8.87959442 359.460368,9.35868188 359.593532,10.0240811 L361.262524,10.0240811 C361.093849,8.53358682 359.930881,7.46007605 358.128725,7.46007605 C356.060241,7.46007605 354.746354,8.81749049 354.746354,10.982256 C354.746354,13.1825095 356.060241,14.531052 358.146481,14.531052 Z" id="©" fill="#FFFFFF" fill-rule="nonzero"></path>
    </g>
</svg>